<svg width="127" height="54" viewBox="0 0 127 54" fill="none" xmlns="http://www.w3.org/2000/svg">
<path d="M15.3457 21.8926C14.7832 21.834 14.0566 21.8047 13.166 21.8047H7.83984V32H3.02344V8.49805C3.33984 8.52148 3.70312 8.53906 4.11328 8.55078L5.41406 8.58594C6.30469 8.60937 7.23047 8.62109 8.19141 8.62109C11.0742 8.62109 13.8281 8.57422 16.4531 8.48047C16.3242 9.51172 16.2598 10.8887 16.2598 12.6113C16.2598 12.7988 16.2715 12.9395 16.2949 13.0332L16.2598 13.0859C15.6387 12.9102 14.7715 12.8223 13.6582 12.8223H7.83984V17.6562H12.9727C14.2617 17.6562 15.0352 17.6211 15.293 17.5508L15.3457 21.8926ZM19.9863 8.39258C20.9238 6.92773 21.9023 5.63867 22.9219 4.52539L26.7012 7.49609C26.1973 8.11719 25.7285 8.72656 25.2949 9.32422C25.2949 9.32422 24.8438 9.96289 23.9414 11.2402L19.9863 8.39258ZM24.6094 30.0312C24.6094 31.0391 24.6328 31.6953 24.6797 32H20.2148V13.6309H24.6094V30.0312ZM34.207 29.75C34.207 30.7812 34.2539 31.5312 34.3477 32H29.9355V13.6309H34.207V15.1953C35.7539 13.918 37.4062 13.2793 39.1641 13.2793C41.0859 13.2793 42.6211 13.9355 43.7695 15.248C44.918 16.5488 45.4922 18.2656 45.4922 20.3984V27.3945C45.4922 29.375 45.5215 30.5645 45.5801 30.9629C45.6387 31.3613 45.7148 31.6191 45.8086 31.7363C45.9141 31.8535 46.002 31.959 46.0723 32.0527L46.0371 32.123C45.0879 32.041 44.3965 32 43.9629 32H42.7324C42.3574 32 41.8535 32.0176 41.2207 32.0527V22.4727C41.2207 19.0391 40.1777 17.3223 38.0918 17.3223C36.5449 17.3223 35.25 18.1191 34.207 19.7129V29.75ZM59.4492 32.0703C59.0977 32.0234 58.5 32 57.6562 32H55.6172C55.2188 32 54.8906 32.0117 54.6328 32.0352L54.6152 32C54.6621 31.918 54.6855 31.8242 54.6855 31.7188C54.6855 31.6133 54.6738 31.502 54.6504 31.3848C54.6387 31.2676 54.5918 31.0566 54.5098 30.752C54.4395 30.4473 54.3281 30.0078 54.1758 29.4336L48.1992 8.55078C48.9492 8.59766 49.8574 8.62109 50.9238 8.62109C51.9902 8.62109 52.6816 8.57422 52.998 8.48047L57.1465 24.3887L61.1895 8.55078C61.3652 8.5625 61.5234 8.57422 61.6641 8.58594H62.0508C62.4375 8.60937 62.9238 8.62109 63.5098 8.62109C64.0957 8.62109 64.6992 8.57422 65.3203 8.48047L69.4336 24.3887L72.9668 8.55078C73.6699 8.59766 74.5898 8.62109 75.7266 8.62109C76.8633 8.62109 77.5547 8.57422 77.8008 8.48047L72.7383 27.0254C72.0938 29.1582 71.7539 30.4238 71.7188 30.8223C71.6836 31.2207 71.666 31.4961 71.666 31.6484C71.666 31.8008 71.6895 31.9238 71.7363 32.0176L71.7012 32.0703C71.3262 32.0234 70.7344 32 69.9258 32C69.2227 32 68.584 32 68.0098 32C67.4355 32 67.0195 32.0117 66.7617 32.0352L66.7441 32C66.791 31.918 66.8145 31.8242 66.8145 31.7188C66.8145 31.6133 66.8086 31.5078 66.7969 31.4023C66.7852 31.2969 66.75 31.0977 66.6914 30.8047C66.6445 30.5 66.5625 30.0547 66.4453 29.4688L65.9707 27.0781L63.0879 16.127L60.3457 27.0254C59.7832 29.2637 59.4902 30.5527 59.4668 30.8926C59.4199 31.5371 59.4258 31.9121 59.4844 32.0176L59.4492 32.0703ZM80.1387 8.39258C81.0762 6.92773 82.0547 5.63867 83.0742 4.52539L86.8535 7.49609C86.3496 8.11719 85.8809 8.72656 85.4473 9.32422C85.4473 9.32422 84.9961 9.96289 84.0938 11.2402L80.1387 8.39258ZM84.7617 30.0312C84.7617 31.0391 84.7852 31.6953 84.832 32H80.3672V13.6309H84.7617V30.0312ZM95.9238 32.2637C92.6191 32.2637 90.1289 31.6602 88.4531 30.4531C88.4766 30.1016 88.5117 29.7031 88.5586 29.2578L88.7168 27.9922C88.8105 27.1602 88.8691 26.6445 88.8926 26.4453C88.916 26.2344 88.9336 26.123 88.9453 26.1113C88.957 26.0879 89.0508 26.1816 89.2266 26.3926C89.4023 26.5918 89.7363 26.8379 90.2285 27.1309C90.7207 27.4238 91.2891 27.6816 91.9336 27.9043C93.3281 28.3848 94.7812 28.625 96.293 28.625C98.3203 28.625 99.334 27.9512 99.334 26.6035C99.334 26.1699 99.1406 25.8477 98.7539 25.6367C98.0625 25.2852 97.043 25.0215 95.6953 24.8457C94.3594 24.6582 93.2637 24.3887 92.4082 24.0371C91.5527 23.6855 90.8555 23.2637 90.3164 22.7715C89.3203 21.8457 88.8223 20.6328 88.8223 19.1328C88.8223 17.3047 89.5254 15.8691 90.9316 14.8262C92.3262 13.7949 94.2539 13.2793 96.7148 13.2793C99.1523 13.2793 101.232 13.9707 102.955 15.3535C102.873 15.6582 102.785 15.9512 102.691 16.2324C102.422 17.0059 102.223 17.5625 102.094 17.9023L101.689 18.9395C101.666 19.0332 101.648 19.0801 101.637 19.0801C101.613 19.0801 101.52 18.957 101.355 18.7109C100.617 17.8555 99.4688 17.293 97.9102 17.0234C97.4297 16.9297 96.9375 16.8828 96.4336 16.8828C94.3008 16.8828 93.2344 17.5273 93.2344 18.8164C93.2344 19.2617 93.457 19.6016 93.9023 19.8359C94.7344 20.2812 95.8711 20.6094 97.3125 20.8203C98.7656 21.0312 99.8672 21.3184 100.617 21.6816C101.367 22.0332 101.971 22.4609 102.428 22.9648C103.271 23.8789 103.693 25.0918 103.693 26.6035C103.693 28.2559 103.031 29.5977 101.707 30.6289C100.324 31.7188 98.3965 32.2637 95.9238 32.2637ZM106.893 22.9648C106.893 21.5938 107.127 20.3223 107.596 19.1504C108.064 17.9785 108.727 16.9531 109.582 16.0742C111.41 14.2109 113.801 13.2793 116.754 13.2793C119.25 13.2793 121.254 14.1055 122.766 15.7578C124.254 17.3516 124.998 19.3555 124.998 21.7695C124.998 22.6953 124.928 23.3281 124.787 23.668C123.615 23.9961 121.23 24.1602 117.633 24.1602H111.445C111.75 25.4141 112.459 26.3926 113.572 27.0957C114.686 27.7871 116.133 28.1328 117.914 28.1328C119.777 28.1328 121.377 27.7988 122.713 27.1309C123.064 26.9551 123.328 26.791 123.504 26.6387C123.48 27.1309 123.451 27.6348 123.416 28.1504L123.223 30.8926C122.332 31.502 120.891 31.9238 118.898 32.1582C118.312 32.2285 117.75 32.2637 117.211 32.2637C114.234 32.2637 111.773 31.3965 109.828 29.6621C107.871 27.916 106.893 25.6836 106.893 22.9648ZM120.322 20.75C119.842 18.2305 118.471 16.9707 116.209 16.9707C114.428 16.9707 113.074 17.7383 112.148 19.2734C111.867 19.7422 111.65 20.2578 111.498 20.8203C111.779 20.832 112.125 20.8438 112.535 20.8555H113.836C114.27 20.8672 114.686 20.873 115.084 20.873H116.086C116.684 20.873 117.27 20.8672 117.844 20.8555L119.285 20.8027C119.672 20.791 120.018 20.7734 120.322 20.75Z" fill="#00C2FF"/>
<path d="M8.04688 40.7344C8.00521 40.8854 7.98438 41.2656 7.98438 41.875V42.5625H6.10156V48H4.1875V42.5625H3.03906C3.04427 42.2188 3.04948 41.9141 3.05469 41.6484L3.07031 40.8125V40.7344H4.1875V40.25C4.1875 39 4.47917 37.9948 5.0625 37.2344C5.67188 36.4479 6.51042 36.0547 7.57812 36.0547C8.03125 36.0547 8.33073 36.0859 8.47656 36.1484L8.48438 38.1094L8.46875 38.1484C8.27083 37.9505 8.01823 37.8516 7.71094 37.8516C7.40885 37.8516 7.16406 37.9036 6.97656 38.0078C6.78906 38.1068 6.63021 38.25 6.5 38.4375C6.23438 38.8125 6.10156 39.3255 6.10156 39.9766V40.7344H8.04688ZM9.24219 37.5078C9.65885 36.8568 10.0938 36.2839 10.5469 35.7891L12.2266 37.1094C12.0026 37.3854 11.7943 37.6562 11.6016 37.9219C11.6016 37.9219 11.401 38.2057 11 38.7734L9.24219 37.5078ZM11.2969 47.125C11.2969 47.5729 11.3073 47.8646 11.3281 48H9.34375V39.8359H11.2969V47.125ZM15.5625 47C15.5625 47.4583 15.5833 47.7917 15.625 48H13.6641V39.8359H15.5625V40.5312C16.25 39.9635 16.9844 39.6797 17.7656 39.6797C18.6198 39.6797 19.3021 39.9714 19.8125 40.5547C20.3229 41.1328 20.5781 41.8958 20.5781 42.8438V45.9531C20.5781 46.8333 20.5911 47.362 20.6172 47.5391C20.6432 47.7161 20.6771 47.8307 20.7188 47.8828C20.7656 47.9349 20.8047 47.9818 20.8359 48.0234L20.8203 48.0547C20.3984 48.0182 20.0911 48 19.8984 48H19.3516C19.1849 48 18.9609 48.0078 18.6797 48.0234V43.7656C18.6797 42.2396 18.2161 41.4766 17.2891 41.4766C16.6016 41.4766 16.026 41.8307 15.5625 42.5391V47ZM28.2578 47.5156C27.5182 47.9167 26.849 48.1172 26.25 48.1172C25.651 48.1172 25.138 48.0625 24.7109 47.9531C24.2839 47.8385 23.9219 47.6719 23.625 47.4531C23.0208 47.0104 22.7188 46.3698 22.7188 45.5312C22.7188 44.7812 23.0885 44.1562 23.8281 43.6562C24.6302 43.1146 25.7188 42.8438 27.0938 42.8438L27.4062 42.8516C27.4688 42.8568 27.5391 42.862 27.6172 42.8672C27.6953 42.8672 27.7656 42.8724 27.8281 42.8828C27.7865 42.0495 27.4271 41.5625 26.75 41.4219C26.526 41.375 26.2865 41.3516 26.0312 41.3516C25.7812 41.3516 25.5339 41.375 25.2891 41.4219C25.0495 41.4635 24.8151 41.5208 24.5859 41.5938C24.0807 41.7552 23.7188 41.9401 23.5 42.1484L23.4766 42.1328L23.2422 40.4062C24.1641 39.9219 25.1719 39.6797 26.2656 39.6797C27.9635 39.6797 29.0495 40.2917 29.5234 41.5156C29.6745 41.9062 29.75 42.3464 29.75 42.8359V45.6641C29.75 46.2682 29.9635 46.6797 30.3906 46.8984L28.9766 48.1953C28.6797 48.0391 28.4401 47.8125 28.2578 47.5156ZM27.8359 44.2891C27.6953 44.263 27.5495 44.25 27.3984 44.25H27.0859C25.9349 44.25 25.2031 44.5052 24.8906 45.0156C24.7969 45.1667 24.75 45.3255 24.75 45.4922C24.75 45.6589 24.7786 45.8073 24.8359 45.9375C24.8984 46.0625 25 46.1667 25.1406 46.25C25.4115 46.4062 25.8125 46.4844 26.3438 46.4844C26.8802 46.4844 27.3802 46.3568 27.8438 46.1016C27.8385 46.0443 27.8359 45.9844 27.8359 45.9219V44.2891ZM34.25 47C34.25 47.4583 34.2708 47.7917 34.3125 48H32.3516V39.8359H34.25V40.5312C34.9375 39.9635 35.6719 39.6797 36.4531 39.6797C37.3073 39.6797 37.9896 39.9714 38.5 40.5547C39.0104 41.1328 39.2656 41.8958 39.2656 42.8438V45.9531C39.2656 46.8333 39.2786 47.362 39.3047 47.5391C39.3307 47.7161 39.3646 47.8307 39.4062 47.8828C39.4531 47.9349 39.4922 47.9818 39.5234 48.0234L39.5078 48.0547C39.0859 48.0182 38.7786 48 38.5859 48H38.0391C37.8724 48 37.6484 48.0078 37.3672 48.0234V43.7656C37.3672 42.2396 36.9036 41.4766 35.9766 41.4766C35.2891 41.4766 34.7135 41.8307 34.25 42.5391V47ZM47.9375 47.2422C47.3542 47.8255 46.4401 48.1172 45.1953 48.1172C43.987 48.1172 43 47.75 42.2344 47.0156C41.4583 46.2708 41.0703 45.2812 41.0703 44.0469C41.0703 42.7917 41.4531 41.7604 42.2188 40.9531C43.0312 40.1042 44.1172 39.6797 45.4766 39.6797C46.4401 39.6797 47.2474 39.8906 47.8984 40.3125L47.5859 42.3125L47.5312 42.3047C47.2812 42.0026 47.0182 41.8047 46.7422 41.7109C46.2943 41.5547 45.8464 41.4766 45.3984 41.4766C44.9505 41.4766 44.599 41.5339 44.3438 41.6484C44.0885 41.763 43.8698 41.9219 43.6875 42.125C43.3229 42.5417 43.1406 43.0938 43.1406 43.7812C43.1406 45 43.5625 45.7969 44.4062 46.1719C44.6979 46.2969 45.0052 46.3594 45.3281 46.3594C45.6562 46.3594 45.9401 46.3307 46.1797 46.2734C46.4245 46.2161 46.6458 46.138 46.8438 46.0391C47.2656 45.8307 47.5521 45.5885 47.7031 45.3125L47.7578 45.3359L47.9375 47.2422ZM49.3203 37.5078C49.737 36.8568 50.1719 36.2839 50.625 35.7891L52.3047 37.1094C52.0807 37.3854 51.8724 37.6562 51.6797 37.9219C51.6797 37.9219 51.4792 38.2057 51.0781 38.7734L49.3203 37.5078ZM51.375 47.125C51.375 47.5729 51.3854 47.8646 51.4062 48H49.4219V39.8359H51.375V47.125ZM58.9766 47.5156C58.237 47.9167 57.5677 48.1172 56.9688 48.1172C56.3698 48.1172 55.8568 48.0625 55.4297 47.9531C55.0026 47.8385 54.6406 47.6719 54.3438 47.4531C53.7396 47.0104 53.4375 46.3698 53.4375 45.5312C53.4375 44.7812 53.8073 44.1562 54.5469 43.6562C55.349 43.1146 56.4375 42.8438 57.8125 42.8438L58.125 42.8516C58.1875 42.8568 58.2578 42.862 58.3359 42.8672C58.4141 42.8672 58.4844 42.8724 58.5469 42.8828C58.5052 42.0495 58.1458 41.5625 57.4688 41.4219C57.2448 41.375 57.0052 41.3516 56.75 41.3516C56.5 41.3516 56.2526 41.375 56.0078 41.4219C55.7682 41.4635 55.5339 41.5208 55.3047 41.5938C54.7995 41.7552 54.4375 41.9401 54.2188 42.1484L54.1953 42.1328L53.9609 40.4062C54.8828 39.9219 55.8906 39.6797 56.9844 39.6797C58.6823 39.6797 59.7682 40.2917 60.2422 41.5156C60.3932 41.9062 60.4688 42.3464 60.4688 42.8359V45.6641C60.4688 46.2682 60.6823 46.6797 61.1094 46.8984L59.6953 48.1953C59.3984 48.0391 59.1589 47.8125 58.9766 47.5156ZM58.5547 44.2891C58.4141 44.263 58.2682 44.25 58.1172 44.25H57.8047C56.6536 44.25 55.9219 44.5052 55.6094 45.0156C55.5156 45.1667 55.4688 45.3255 55.4688 45.4922C55.4688 45.6589 55.4974 45.8073 55.5547 45.9375C55.6172 46.0625 55.7188 46.1667 55.8594 46.25C56.1302 46.4062 56.5312 46.4844 57.0625 46.4844C57.599 46.4844 58.099 46.3568 58.5625 46.1016C58.5573 46.0443 58.5547 45.9844 58.5547 45.9219V44.2891ZM64.7266 47.125C64.7266 47.5729 64.737 47.8646 64.7578 48H62.7734V36.3594H64.7266V47.125Z" fill="#00C2FF"/>
</svg>
